:FULLY-SPECIFIED
:FORCE-ALL-JOINTS-BE-3DOF
:DEGREES
272
root 8.31512 16.185 -25.2015 20.8 68.9271 18.4727
lfemur -24.6531 7.69798 -22.74
ltibia 40.9079 -0 0
lfoot -5.96099 -21.3627 -0.0274789
ltoes 64.4457 -0 0
rfemur -52.3308 -5.82388 12.9895
rtibia 84.548 -0 0
rfoot 8.40938 -0.791098 0.0238916
rtoes 1.34263 -0 0
lowerback 6.47242 -4.34946 -2.62008
upperback 1.41955 -5.97137 -1.82396
thorax -2.08221 -2.94523 0.0664817
lowerneck -5.34563 -11.1179 -4.65077
upperneck 0.781822 -14.6764 5.21897
head 1.94621 -7.2518 1.86959
lclavicle -5.79457e-14 -5.1684e-15 0
lhumerus -44.9664 -35.343 107.362
lradius 59.2022 -0 0
lwrist 20.1815 0 0
lhand 18.722 14.5481 0.0181538
lfingers 7.12502 -0 0
lthumb 43.3379 38.6334 0.00469077
rclavicle -5.79457e-14 -5.1684e-15 0
rhumerus -53.7898 3.24408 -94.7523
rradius 43.8024 -0 0
rwrist 25.0388 0 0
rhand -21.0278 0.537629 -0.128823
rfingers 7.12502 -0 0
rthumb 5.34442 -29.3005 -0.104973
273
root 8.37489 16.1786 -25.1715 22.1398 69.92 20.1441
lfemur -24.212 7.03263 -23.0068
ltibia 40.8952 0 0
lfoot -5.53562 -21.855 0
ltoes 64.8167 0 0
rfemur -54.2541 -6.08349 13.9488
rtibia 85.0913 0 0
rfoot 7.93935 -1.17859 0
rtoes 2.09714 0 0
lowerback 6.64142 -4.45719 -2.62742
upperback 1.55634 -6.11698 -2.05645
thorax -2.05138 -3.02007 -0.150032
lowerneck -5.10397 -11.2605 -4.78472
upperneck 0.640157 -14.874 5.49624
head 1.89709 -7.34906 1.98006
lclavicle 3.74445e-14 1.13618e-14 0
lhumerus -44.6221 -35.4023 106.763
lradius 59.0777 0 0
lwrist 20.1788 0 0
lhand 19.3236 14.7781 0
lfingers 7.12502 0 0
lthumb 43.9045 38.6965 0
rclavicle 3.74445e-14 1.13618e-14 0
rhumerus -54.5351 3.57056 -96.3508
rradius 44.5197 0 0
rwrist 24.49 0 0
rhand -22.4508 1.21931 0
rfingers 7.12502 0 0
rthumb 3.97343 -748.723 0
274
root 8.44361 16.1319 -25.1181 22.7405 70.5647 21.385
lfemur -23.6116 7.06786 -22.9319
ltibia 41.6693 -0 0
lfoot -6.02203 -22.5237 0.0427465
ltoes 64.1975 -0 0
rfemur -53.4541 -5.77827 14.3721
rtibia 83.0927 -0 0
rfoot 7.81145 -2.39982 0.0206235
rtoes 4.79314 -0 0
lowerback 6.67968 -4.53438 -2.86105
upperback 1.75005 -6.22078 -2.17712
thorax -1.85482 -3.07323 -0.150389
lowerneck -4.9216 -11.3466 -4.89048
upperneck 0.817411 -15.0003 5.61421
head 1.95423 -7.41356 2.03259
lclavicle 3.74445e-14 1.13618e-14 0
lhumerus -44.4986 -35.7943 106.579
lradius 59.1552 -0 0
lwrist 19.9182 0 0
lhand 19.2379 14.7049 0.000820439
lfingers 7.12502 -0 0
lthumb 43.8244 38.6521 0.000465881
rclavicle 3.74445e-14 1.13618e-14 0
rhumerus -55.412 4.44124 -96.6904
rradius 46.2216 -0 0
rwrist 23.9612 0 0
rhand -22.8861 0.645841 0.0327745
rfingers 7.12502 -0 0
rthumb 3.55302 -29.2977 0.031719
275
root 8.51232 16.0852 -25.0647 23.4042 71.2047 22.6877
lfemur -23.0112 7.10231 -22.8565
ltibia 42.4435 -0 0
lfoot -6.50891 -23.1928 0.0798115
ltoes 63.5784 -0 0
rfemur -52.6524 -5.47896 14.7994
rtibia 81.0941 -0 0
rfoot 7.68314 -3.62109 0.0385163
rtoes 7.48915 -0 0
lowerback 6.71825 -4.61141 -3.09476
upperback 1.94401 -6.32418 -2.29818
thorax -1.65825 -3.12639 -0.150929
lowerneck -4.73902 -11.4323 -4.99655
upperneck 0.994501 -15.127 5.73185
head 2.01132 -7.47812 2.08506
lclavicle 3.74445e-14 1.13618e-14 0
lhumerus -44.373 -36.1859 106.394
lradius 59.2327 -0 0
lwrist 19.6576 0 0
lhand 19.1523 14.6318 0.00153149
lfingers 7.12502 -0 0
lthumb 43.7444 38.6076 0.000869647
rclavicle 3.74445e-14 1.13618e-14 0
rhumerus -56.2953 5.30661 -97.0438
rradius 47.9234 -0 0
rwrist 23.4324 0 0
rhand -23.3217 0.0721393 0.0611896
rfingers 7.12502 -0 0
rthumb 3.13231 -29.8726 0.0592187
276
root 8.58104 16.0385 -25.0112 24.1368 71.8395 24.0581
lfemur -22.4107 7.13597 -22.7809
ltibia 43.2176 -0 0
lfoot -6.99619 -23.8622 0.111187
ltoes 62.9592 -0 0
rfemur -51.8488 -5.18564 15.2306
rtibia 79.0956 -0 0
rfoot 7.55448 -4.8424 0.0536704
rtoes 10.1852 -0 0
lowerback 6.75715 -4.68828 -3.32854
upperback 2.13823 -6.42716 -2.4196
thorax -1.46167 -3.17955 -0.151651
lowerneck -4.55622 -11.5177 -5.10294
upperneck 1.17143 -15.2541 5.84915
head 2.06836 -7.54273 2.13747
lclavicle 3.74445e-14 1.13618e-14 0
lhumerus -44.2452 -36.5773 106.206
lradius 59.3102 -0 0
lwrist 19.3969 0 0
lhand 19.0666 14.5586 0.00213316
lfingers 7.12502 -0 0
lthumb 43.6643 38.5632 0.0012113
rclavicle 3.74445e-14 1.13618e-14 0
rhumerus -57.1852 6.16643 -97.4111
rradius 49.6253 -0 0
rwrist 22.9036 0 0
rhand -23.7576 -0.501762 0.0852408
rfingers 7.12502 -0 0
rthumb 2.71135 -30.4477 0.082495
277
root 8.64976 15.9918 -24.9578 24.9452 72.4684 25.5031
lfemur -21.81 7.16884 -22.7048
ltibia 43.9918 -0 0
lfoot -7.4838 -24.5318 0.136868
ltoes 62.3401 -0 0
rfemur -51.0433 -4.89838 15.6658
rtibia 77.097 -0 0
rfoot 7.42553 -6.06374 0.0660786
rtoes 12.8812 -0 0
lowerback 6.79636 -4.76499 -3.56241
upperback 2.33271 -6.52974 -2.5414
thorax -1.26508 -3.23271 -0.152556
lowerneck -4.3732 -11.6027 -5.20963
upperneck 1.34819 -15.3815 5.96611
head 2.12535 -7.60738 2.18983
lclavicle 3.74445e-14 1.13618e-14 0
lhumerus -44.1151 -36.9683 106.017
lradius 59.3877 -0 0
lwrist 19.1363 0 0
lhand 18.9809 14.4855 0.00262543
lfingers 7.12502 -0 0
lthumb 43.5842 38.5187 0.00149083
rclavicle 3.74445e-14 1.13618e-14 0
rhumerus -58.0822 7.02045 -97.7925
rradius 51.3272 -0 0
rwrist 22.3748 0 0
rhand -24.1937 -1.07583 0.104924
rfingers 7.12502 -0 0
rthumb 2.29018 -31.023 0.101544
278
root 8.71847 15.9451 -24.9044 25.8367 73.0906 27.0303
lfemur -21.2093 7.20092 -22.6284
ltibia 44.7659 -0 0
lfoot -7.97168 -25.2016 0.156847
ltoes 61.7209 -0 0
rfemur -50.236 -4.61724 16.1048
rtibia 75.0984 -0 0
rfoot 7.29634 -7.28511 0.0757354
rtoes 15.5772 -0 0
lowerback 6.83589 -4.84155 -3.79635
upperback 2.52745 -6.63191 -2.66358
thorax -1.06848 -3.28586 -0.153644
lowerneck -4.18997 -11.6875 -5.31663
upperneck 1.52479 -15.5092 6.08274
head 2.18229 -7.67209 2.24213
lclavicle 3.74445e-14 1.13618e-14 0
lhumerus -43.9827 -37.3589 105.825
lradius 59.4653 -0 0
lwrist 18.8757 0 0
lhand 18.8952 14.4123 0.00300831
lfingers 7.12502 -0 0
lthumb 43.5042 38.4743 0.00170824
rclavicle 3.74445e-14 1.13618e-14 0
rhumerus -58.9866 7.86841 -98.188
rradius 53.029 -0 0
rwrist 21.846 0 0
rhand -24.63 -1.65003 0.120237
rfingers 7.12502 -0 0
rthumb 1.86883 -31.5984 0.116363
279
root 8.78719 15.8984 -24.851 26.82 73.7054 28.6481
lfemur -20.6085 7.2322 -22.5517
ltibia 45.54 -0 0
lfoot -8.45976 -25.8715 0.17112
ltoes 61.1018 -0 0
rfemur -49.4269 -4.34231 16.5475
rtibia 73.0998 -0 0
rfoot 7.16698 -8.50649 0.0826363
rtoes 18.2732 -0 0
lowerback 6.87574 -4.91794 -4.03037
upperback 2.72245 -6.73366 -2.78613
thorax -0.871869 -3.33901 -0.154915
lowerneck -4.00652 -11.7718 -5.42394
upperneck 1.70123 -15.6373 6.19903
head 2.23918 -7.73686 2.29437
lclavicle 3.74445e-14 1.13618e-14 0
lhumerus -43.848 -37.7492 105.631
lradius 59.5428 -0 0
lwrist 18.6151 0 0
lhand 18.8096 14.3392 0.0032818
lfingers 7.12502 -0 0
lthumb 43.4241 38.4298 0.00186354
rclavicle 3.74445e-14 1.13618e-14 0
rhumerus -59.8989 8.71004 -98.5979
rradius 54.7309 -0 0
rwrist 21.3172 0 0
rhand -25.0664 -2.22433 0.131176
rfingers 7.12502 -0 0
rthumb 1.44736 -32.1739 0.12695
280
root 8.85591 15.8517 -24.7975 27.9042 74.3117 30.366
lfemur -20.0076 7.26269 -22.4746
ltibia 46.3142 -0 0
lfoot -8.94798 -26.5416 0.179686
ltoes 60.4826 -0 0
rfemur -48.616 -4.07364 16.994
rtibia 71.1012 -0 0
rfoot 7.03749 -9.72789 0.0867781
rtoes 20.9692 -0 0
lowerback 6.91591 -4.99417 -4.26447
upperback 2.91771 -6.83499 -2.90906
thorax -0.675245 -3.39215 -0.156368
lowerneck -3.82285 -11.8559 -5.53156
upperneck 1.87752 -15.7658 6.31498
head 2.29601 -7.80167 2.34656
lclavicle 3.74445e-14 1.13618e-14 0
lhumerus -43.7108 -38.1391 105.435
lradius 59.6203 -0 0
lwrist 18.3544 0 0
lhand 18.7239 14.266 0.0034459
lfingers 7.12502 -0 0
lthumb 43.344 38.3854 0.00195672
rclavicle 3.74445e-14 1.13618e-14 0
rhumerus -60.8194 9.54508 -99.0223
rradius 56.4328 -0 0
rwrist 20.7884 0 0
rhand -25.5029 -2.7987 0.13774
rfingers 7.12502 -0 0
rthumb 1.0258 -32.7494 0.133302
